<svg xmlns="http://www.w3.org/2000/svg" xmlns:xlink="http://www.w3.org/1999/xlink" width="2112" height="1347" viewBox="0 0 2112 1347">
  <defs>
    <linearGradient id="linear-gradient" x1="0.147" y1="0.198" x2="0.111" y2="0.69" gradientUnits="objectBoundingBox">
      <stop offset="0" stop-color="#fff"/>
      <stop offset="1" stop-color="#ffe7b9"/>
    </linearGradient>
  </defs>
  <g id="Group_599" data-name="Group 599" transform="translate(27 267)">
    <g id="Group_598" data-name="Group 598">
      <g id="Group_11" data-name="Group 11">
        <rect id="Rectangle_3" data-name="Rectangle 3" width="1920" height="389" transform="translate(0 691)" fill="#fff"/>
        <path id="Background_shape" data-name="Background shape" d="M0,0H1920V1080s-232.372-243.979-448.219-229.058C1207.628,869.2,1199.749,963.082,960,948.884c-251.24-14.879-218.565-138.7-470.2-156.1C261.435,777,0,882.521,0,882.521Z" fill="url(#linear-gradient)"/>
      </g>
      <path id="Oval" d="M416,832.358c229.75,0,416-186.33,416-416.179S645.75,0,416,0C306.351,0,274.565,92.869,200.25,162.226,118.85,238.194,0,296.026,0,416.179,0,543.307,5.107,833.928,94.906,910.267,167.465,971.949,313.323,832.358,416,832.358Z" transform="translate(1253 -267)" fill="#ffe7b9"/>
      <path id="Combined_Shape" data-name="Combined Shape" d="M47.669,74.413a1.356,1.356,0,0,0-1.143-.287,4.217,4.217,0,0,1-3.589-1.552,4.688,4.688,0,0,1-.946-3.948,3.627,3.627,0,0,0-.21-2.651,2.251,2.251,0,0,1,.458-2.719,9.363,9.363,0,0,1,1.424-1.288c5.98-4.053,10.942-9.435,16.588-13.922a27.351,27.351,0,0,1,2.469-1.74c.443-.277,1.046-.53,1.47-.089.529.55-.106.965-.349,1.4-.13.236-.278.461-.484.8a6.841,6.841,0,0,0,2.14-1.011c.394-.183,1.012-.455,1.144-.074.634,1.84,2.873,1.625,3.647,3.307a1.912,1.912,0,0,1-.312,2.224,51.059,51.059,0,0,1-5.207,5.874,5.431,5.431,0,0,0-1.118,1.349.2.2,0,0,0,.015.129c.094,0,.189-.006.284-.012a.6.6,0,0,1-.057.848c-3.465,3.31-6.916,6.64-10.607,9.677a2.319,2.319,0,0,1-.547.209l.561-1.155c-1.326,1.1-2.986,1.766-3.3,3.866-.133.887-.539,1.327-1.091,1.327A2.049,2.049,0,0,1,47.669,74.413Zm16.923-14h.044l-.023.025A.262.262,0,0,1,64.592,60.411Zm.044,0,2.694-2.975.262.355c-.965.887-1.314,2.62-2.922,2.62Zm-.708-.237.03.03h-.008ZM28.82,36.027a8.027,8.027,0,0,0-3.093-.422h-.007a1.607,1.607,0,0,0-.28.033l-.011,0a1.656,1.656,0,0,1-.272.032.686.686,0,0,1-.076,0,.962.962,0,0,1-.938-.767,2.734,2.734,0,0,0-.868-1.337,2.285,2.285,0,0,1-.852-1.453,1.613,1.613,0,0,1,.616-1.086A28.036,28.036,0,0,0,26.52,26.8c.689-.958,1.4-1.948,2.183-2.857a65.38,65.38,0,0,1,10.352-9.059c.543-.411,1.1-.836,1.654-1.257,2.456-1.88,4.982-3.754,7.426-5.566,1.011-.75,2.053-1.523,3.079-2.288A71.469,71.469,0,0,1,58.928.976L59.058.9a4.836,4.836,0,0,1,.895-.379l.02-.006A1.778,1.778,0,0,1,60.492.4a.462.462,0,0,1,.379.166c.206.248.04.477-.122.7-.037.051-.073.1-.1.149a3.551,3.551,0,0,1-.305.39,2.416,2.416,0,0,0-.682,1.363c.31-.178.6-.347.88-.511.6-.354,1.174-.687,1.747-.99a1.733,1.733,0,0,1,.756-.247.429.429,0,0,1,.331.13,1,1,0,0,1,.142.754c-.022.236-.031.385.049.473a.387.387,0,0,0,.3.087c.031,0,.063,0,.1,0,.1-.006.187-.009.275-.009a1.3,1.3,0,0,1,1.157.418c.238.359.168.941-.228,1.887l1.227-.515a1.345,1.345,0,0,1-.4,1.1,1.241,1.241,0,0,0-.366.83.258.258,0,0,0,.087.014.581.581,0,0,0,.241-.076.577.577,0,0,1,.242-.076.339.339,0,0,1,.225.1,1.268,1.268,0,0,1-.2.372c-.242.221-.494.439-.738.65-.4.345-.809.7-1.185,1.079-.478.48-.659.777-.643,1.061.017.344.338.671.849,1.089.349.285.212.535.066.8l-.019.036a8.411,8.411,0,0,1-.535.8c-.107.15-.218.294-.336.447l-.156.2a.468.468,0,0,0,.273.109.514.514,0,0,0,.339-.2.713.713,0,0,1,.209-.161,6.674,6.674,0,0,0,.615-.316c.124-.069.263-.146.427-.234a4.4,4.4,0,0,1-1.466,2.062l0,0-.129.119c-7.525,6.977-14.738,13.1-22.05,18.734-.161.124-.322.256-.479.382a4.544,4.544,0,0,1-2.948,1.366c-.12,0-.243-.006-.366-.018-.578-.057-1.038-.124-1.266-.418a1.473,1.473,0,0,1-.13-1.142c-.433.256-.841.5-1.235.741-.848.511-1.647.994-2.455,1.433a5.391,5.391,0,0,1-2.534.868A3.371,3.371,0,0,1,28.82,36.027ZM49.73,10.581l6.489-4.929A22.5,22.5,0,0,0,49.73,10.581ZM85.676,31.367a.7.7,0,0,1,.071-.881.641.641,0,0,0,.157-.558,3.783,3.783,0,0,1-1.5.3,5.3,5.3,0,0,1-4.206-2.24,3.965,3.965,0,0,1-.41-3.788.427.427,0,0,0-.208-.052,1.262,1.262,0,0,0-.515.169l-.008,0a1.231,1.231,0,0,1-.494.165c-.19,0-.331-.122-.443-.384a2.751,2.751,0,0,1,.228-3.218c1.318-1.357,2.7-2.64,3.759-3.606,1.453-1.328,2.942-2.666,4.381-3.96,1.094-.985,2.224-2,3.331-3a12.271,12.271,0,0,1,2.759-2,2.583,2.583,0,0,1,1.04-.335.626.626,0,0,1,.49.2,1.385,1.385,0,0,0,1.012.569A2.219,2.219,0,0,0,96.312,8.2c.088-.062.178-.126.269-.186A89.227,89.227,0,0,1,109.131.854a8.355,8.355,0,0,1,1.043-.439.614.614,0,0,1,.729.2c.16.256-.006.439-.167.617-.026.029-.051.056-.074.083-.142.167-.293.321-.454.486a4.8,4.8,0,0,0-1.219,1.734,5.927,5.927,0,0,0,2.11-.894c.223-.134.433-.26.654-.374a2.434,2.434,0,0,0,.3-.2,1.182,1.182,0,0,1,.623-.291.617.617,0,0,1,.477.285c.418.532.048.866-.311,1.188-.057.05-.113.1-.166.153a6.1,6.1,0,0,0-.424.475c-.068.081-.138.164-.212.249a1.4,1.4,0,0,0,.412.066,1.853,1.853,0,0,0,.982-.366c.065-.04.129-.079.194-.117A1.9,1.9,0,0,0,113.9,3.5a.938.938,0,0,1,.543-.308.528.528,0,0,1,.4.254l.046.06a1.236,1.236,0,0,1,.3,1.394,3.958,3.958,0,0,1-1.3,1.832c.071.016.133.034.183.049a.557.557,0,0,0,.138.032.073.073,0,0,0,.039-.01,2.367,2.367,0,0,0,.355-.3c.2-.2.411-.4.628-.4a.457.457,0,0,1,.337.178c.327.362-.016.7-.348,1.023a3.5,3.5,0,0,0-.275.29c-3.986,4.935-8.889,9.019-13.63,12.969-3.138,2.614-6.383,5.316-9.331,8.24a9.292,9.292,0,0,1-4.558,2.075c-.583.146-1.185.3-1.756.484Zm11.365-8.518a8.464,8.464,0,0,0-2.77,2.578c-.238.3-.486.613-.741.908.392-.372.819-.717,1.233-1.052a10.162,10.162,0,0,0,2.343-2.368,23.66,23.66,0,0,0,4.4-3.922l.23-.243A20.635,20.635,0,0,0,97.042,22.849ZM104.14,6.4c-.613.434-1.271.823-1.907,1.2a12.769,12.769,0,0,0-3.872,3.035,20.681,20.681,0,0,1,1.993-1.211A9.947,9.947,0,0,0,104.141,6.4h0ZM4.576,25.628c-.751-.845-1.063-1.03-1.787-.131a1.023,1.023,0,0,1-.878.259c-.416-.128-.213-.54-.151-.839.4-1.9.393-1.908-1.547-1.431a2.4,2.4,0,0,1-.031-1.87C2.066,18.212,3.407,14.53,6.8,12c4.126-3.082,7.991-6.485,11.98-9.739A12.468,12.468,0,0,1,24.113.122c.37-.085.857-.261,1.1.081.3.417-.226.616-.459.888s-.428.6-.869,1.226A13.79,13.79,0,0,1,26,1.682c.558-.062.976-.938,1.631-.3.631.618-.4,1.023-.258,1.632.355.239.668.011.986-.217.392-.281.794-.562,1.293.029.67.79.37,1.466-.04,2.209a1.07,1.07,0,0,0,.538-.117A.848.848,0,0,1,31,4.912a2.69,2.69,0,0,0-.4,3.038c.3.889-.495,1.31-.936,1.68-5.009,4.21-8.943,9.348-13.312,14.111a4.526,4.526,0,0,1-2.416,1.57c1.6-2.809,4.246-4.8,6.41-7.713a38.733,38.733,0,0,0-5.011,4.837c-.743.792-1.472,1.6-2.273,2.336-.439.4-.921,1.041-1.676.341-.3-.279-.667-.093-.9.137-.812.818-2.093.781-2.939,1.532A1.251,1.251,0,0,1,6.986,27C6.449,26.035,5.1,26.214,4.576,25.628Z" transform="translate(-1.356 770) rotate(20)" fill="#f4a664"/>
    </g>
  </g>
</svg>
