<svg xmlns="http://www.w3.org/2000/svg" width="39.583" height="38.409" viewBox="0 0 39.583 38.409">
  <g id="Check_Icon" data-name="Check Icon" transform="translate(-1714 -911)">
    <path id="Oval" d="M18.792,36.409c4.829,0,8.312-3.517,11.64-6.266,3.825-3.159,7.151-5.919,7.151-11.442,0-5.559-3.282-9.279-7.151-12.7-3.319-2.939-6.848-6-11.64-6-3.412,0-5.923,1.837-8.681,3.42C7.179,5.1,3.868,6.776,2.031,9.47.338,11.952,0,15.377,0,18.7c0,4.638,3.259,8.174,6.068,11.442C9.514,34.153,13.074,36.409,18.792,36.409Z" transform="translate(1715 912)" fill="none" stroke="#f18063" stroke-width="2"/>
    <text id="Kindergarten_provide" data-name="Kindergarten provide" transform="translate(1726 937)" fill="#f18063" font-size="18" font-family="FontAwesome6Pro-Solid, 'Font Awesome \36  Pro'"><tspan x="0" y="0"></tspan></text>
  </g>
</svg>
