<svg xmlns="http://www.w3.org/2000/svg" width="134.657" height="42.405" viewBox="0 0 134.657 42.405">
  <g id="Footer_Logo" data-name="Footer Logo" transform="translate(-567.85 -158.314)">
    <path id="Pfad_4" data-name="Pfad 4" d="M18.954-18.765a1.415,1.415,0,0,0-.27-.54,9.088,9.088,0,0,0-6.318-2.565C5.994-21.87.486-15.795.486-8.991.486-2.673,5.805.378,10.692.378a10.2,10.2,0,0,0,7.884-3.267.566.566,0,0,0,.108-.3.8.8,0,0,0-.135-.4c-.162-.243-1.782-2.754-2.025-3.024a.419.419,0,0,0-.3-.189.327.327,0,0,0-.243.162,7.394,7.394,0,0,1-4.86,2.106A3.766,3.766,0,0,1,7.29-8.505c0-3.537,2.592-7.182,5.994-7.182a3.379,3.379,0,0,1,2.754,1.431.14.14,0,0,0,.108.054.577.577,0,0,0,.378-.27c.135-.216,2.241-3.942,2.376-4.131A.384.384,0,0,0,18.954-18.765ZM40.932-1.026v-.108A174.336,174.336,0,0,1,36.45-20.9a.659.659,0,0,0-.594-.513l-7.371-.216h-.027a.815.815,0,0,0-.675.459L19.386-.783a.342.342,0,0,0-.027.162.379.379,0,0,0,.324.378l5.049.864h.108a.647.647,0,0,0,.594-.378L26.7-2.592a.9.9,0,0,1,.675-.486l5.913-.567h.054a.666.666,0,0,1,.648.405L34.911-.3c.054.243.378.378.621.378h.081l4.914-.675A.438.438,0,0,0,40.932-1.026ZM32.238-8.505a.369.369,0,0,1-.378.378l-2.511.108c-.216,0-.324-.108-.324-.27a.527.527,0,0,1,.027-.189l1.917-4.266q.081-.162.162-.162c.054,0,.108.054.135.189l.972,4.1Zm36.5,8.019V-.54C67.878-5.481,67.824-15.5,67.8-20.6a.775.775,0,0,0-.675-.7l-6.129-.513h-.054a.988.988,0,0,0-.864.513L55.566-11.286c-.054.162-.135.216-.189.216-.081,0-.135-.081-.189-.27l-1.62-9.207a.861.861,0,0,0-.756-.675l-6.21-.432h-.054a.754.754,0,0,0-.729.594L41.769-1.485v.135a.607.607,0,0,0,.513.594l4.995.567a.1.1,0,0,0,.081.027.746.746,0,0,0,.7-.567l1.728-8.343c.054-.189.108-.27.162-.27.081,0,.135.081.189.243l1.89,5.4a1.043,1.043,0,0,0,.864.621l4.509.189h.027a.956.956,0,0,0,.864-.567L61.425-11.1c.081-.135.135-.216.189-.216s.108.081.108.27a72.889,72.889,0,0,0,.81,10.287.7.7,0,0,0,.675.675l4.914.162a.026.026,0,0,1,.027.027A.582.582,0,0,0,68.742-.486ZM87.75-13.932c0-4.374-3.7-7.614-10.665-7.614a18.73,18.73,0,0,0-5.481.837.832.832,0,0,0-.486.7L70.956-.486a.508.508,0,0,0,.486.513h.027l6.507-.135a.537.537,0,0,0,.54-.513l.189-4.293a.807.807,0,0,1,.513-.648C85.347-7.074,87.75-9.8,87.75-13.932Zm-5.589.486c0,1.4-1.674,2.268-2.97,2.484h-.108a.519.519,0,0,1-.513-.54l.027-3.051a.7.7,0,0,1,.621-.7C80.865-15.255,82.161-14.607,82.161-13.446Zm26.055.783c0-5.589-5.184-9.4-10.53-9.4-4.563,0-8.91,2.754-8.91,7.317,0,4,2.943,5.643,5.7,6.642,1,.378,5.265,1.35,5.265,2.646A1.4,1.4,0,0,1,98.2-4.212a3.621,3.621,0,0,1-3.537-2.646.655.655,0,0,0-.594-.459h-.027l-4.671.162a.576.576,0,0,0-.567.54v.027C88.965-2.916,93.1.81,98.955.81c5.535,0,8.4-2.106,8.4-5.832,0-4.509-6.615-5.508-9.855-6.777a2.354,2.354,0,0,1-1.7-2.052c0-.864.837-1.593,2.241-1.593a4.07,4.07,0,0,1,3.969,3.915.607.607,0,0,0,.567.513l4.968.162h.027c.351,0,.567-.351.621-.837A5.849,5.849,0,0,0,108.216-12.663Z" transform="translate(594.284 199.909)" fill="#fff" opacity="0.795"/>
    <path id="Pfad_3" data-name="Pfad 3" d="M18.468-22.41a.444.444,0,0,0-.567-.135L8.856-15.309c.243-2.376.567-4.563.648-6.318l.027-.027A.363.363,0,0,0,9.153-22l-6.885,1a.406.406,0,0,0-.378.378C1.647-17.5,1.566-13.257,1.566-8.8a68.3,68.3,0,0,0,.54,8.424A.369.369,0,0,0,2.484,0L7.857.054a.386.386,0,0,0,.378-.378c0-1.053-.027-2.133-.027-3.267,0-.756,0-1.566.027-2.376L15.066,1.08c.351.351.594.162.7.054l4.455-4.239c.108-.108.081-.378-.162-.567l-8.694-6.885,9.153-6.615a.593.593,0,0,0,.27-.648Zm11.745,1.242a.335.335,0,0,0-.351-.324l-6.75-.054a.406.406,0,0,0-.378.378c-.243,3.132-.405,7.911-.405,12.366,0,3.24.081,6.318.27,8.451a.386.386,0,0,0,.378.378l6.1.027a.392.392,0,0,0,.405-.378c-.027-1.053-.027-2.133-.027-3.267,0-6.075.27-13.041.756-17.523Zm20.871,9.531c0-7.992-5.4-9.909-12.366-9.909a18.911,18.911,0,0,0-5.508.837.858.858,0,0,0-.459.7L32.535-.783c0,.27.216.432.486.486a51.425,51.425,0,0,0,6.264.378C46.71.081,51.084-3.915,51.084-11.637Zm-6.237.243a4.89,4.89,0,0,1-4.86,5.022c-.432,0-.54-.135-.513-.378l.243-8.37c0-.351.216-.486.756-.486C42.93-15.606,44.847-14.256,44.847-11.394Zm26.892-1.269c0-5.589-5.184-9.4-10.53-9.4-4.563,0-8.91,2.754-8.91,7.317,0,4,2.943,5.643,5.7,6.642,1,.378,5.265,1.35,5.265,2.646a1.4,1.4,0,0,1-1.539,1.242,3.621,3.621,0,0,1-3.537-2.646.655.655,0,0,0-.594-.459h-.027l-4.671.162a.576.576,0,0,0-.567.54v.027c.162,3.672,4.293,7.4,10.152,7.4,5.535,0,8.4-2.106,8.4-5.832,0-4.509-6.615-5.508-9.855-6.777a2.354,2.354,0,0,1-1.7-2.052c0-.864.837-1.593,2.241-1.593a4.07,4.07,0,0,1,3.969,3.915.607.607,0,0,0,.567.513l4.968.162h.027c.351,0,.567-.351.621-.837A5.85,5.85,0,0,0,71.739-12.663Z" transform="translate(566.284 180.909)" fill="#fff"/>
  </g>
</svg>
