<svg xmlns="http://www.w3.org/2000/svg" width="273.264" height="84.677" viewBox="0 0 273.264 84.677">
  <g id="Logo" transform="translate(-569.474 -167.882)">
    <path id="Pfad_2" data-name="Pfad 2" d="M38.61-38.225a2.882,2.882,0,0,0-.55-1.1A18.512,18.512,0,0,0,25.19-44.55C12.21-44.55.99-32.175.99-18.315.99-5.445,11.825.77,21.78.77,32.23.77,37.4-5.335,37.84-5.885a1.153,1.153,0,0,0,.22-.605,1.637,1.637,0,0,0-.275-.825c-.33-.5-3.63-5.61-4.125-6.16a.853.853,0,0,0-.6-.385.665.665,0,0,0-.495.33,15.061,15.061,0,0,1-9.9,4.29c-4.62,0-7.81-3.465-7.81-8.085,0-7.2,5.28-14.63,12.21-14.63a6.882,6.882,0,0,1,5.61,2.915.286.286,0,0,0,.22.11,1.176,1.176,0,0,0,.77-.55c.275-.44,4.565-8.03,4.84-8.415A.782.782,0,0,0,38.61-38.225ZM83.38-2.09v-.22c-3.08-9.9-6.875-26.785-9.13-40.26a1.342,1.342,0,0,0-1.21-1.045l-15.015-.44H57.97a1.661,1.661,0,0,0-1.375.935L39.49-1.595a.7.7,0,0,0-.055.33.771.771,0,0,0,.66.77L50.38,1.265h.22a1.319,1.319,0,0,0,1.21-.77L54.395-5.28a1.843,1.843,0,0,1,1.375-.99L67.815-7.425h.11a1.356,1.356,0,0,1,1.32.825l1.87,5.995c.11.5.77.77,1.265.77h.165L82.555-1.21A.893.893,0,0,0,83.38-2.09ZM65.67-17.325a.752.752,0,0,1-.77.77l-5.115.22c-.44,0-.66-.22-.66-.55a1.074,1.074,0,0,1,.055-.385l3.9-8.69q.165-.33.33-.33c.11,0,.22.11.275.385l1.98,8.36ZM140.03-.99V-1.1c-1.76-10.065-1.87-30.47-1.925-40.865a1.578,1.578,0,0,0-1.375-1.43L124.245-44.44h-.11a2.014,2.014,0,0,0-1.76,1.045L113.19-22.99c-.11.33-.275.44-.385.44-.165,0-.275-.165-.385-.55l-3.3-18.755a1.755,1.755,0,0,0-1.54-1.375l-12.65-.88h-.11a1.536,1.536,0,0,0-1.485,1.21L85.085-3.025v.275A1.237,1.237,0,0,0,86.13-1.54L96.305-.385a.2.2,0,0,0,.165.055A1.521,1.521,0,0,0,97.9-1.485l3.52-16.995c.11-.385.22-.55.33-.55.165,0,.275.165.385.495l3.85,11a2.124,2.124,0,0,0,1.76,1.265l9.185.385h.055a1.948,1.948,0,0,0,1.76-1.155l6.38-15.565c.165-.275.275-.44.385-.44s.22.165.22.55c.055,5.665.66,16.06,1.65,20.955a1.435,1.435,0,0,0,1.375,1.375l10.01.33a.054.054,0,0,1,.055.055A1.186,1.186,0,0,0,140.03-.99Zm38.72-27.39c0-8.91-7.535-15.51-21.725-15.51a38.155,38.155,0,0,0-11.165,1.7,1.7,1.7,0,0,0-.99,1.43L144.54-.99a1.034,1.034,0,0,0,.99,1.045h.055L158.84-.22a1.093,1.093,0,0,0,1.1-1.045l.385-8.745a1.643,1.643,0,0,1,1.045-1.32C173.855-14.41,178.75-19.965,178.75-28.38Zm-11.385.99c0,2.86-3.41,4.62-6.05,5.06h-.22a1.057,1.057,0,0,1-1.045-1.1l.055-6.215a1.435,1.435,0,0,1,1.265-1.43C164.725-31.075,167.365-29.755,167.365-27.39ZM220.44-25.8c0-11.385-10.56-19.14-21.45-19.14-9.295,0-18.15,5.61-18.15,14.9,0,8.14,5.995,11.5,11.6,13.53,2.035.77,10.725,2.75,10.725,5.39,0,1.375-1.32,2.53-3.135,2.53a7.375,7.375,0,0,1-7.205-5.39,1.335,1.335,0,0,0-1.21-.935h-.055l-9.515.33a1.174,1.174,0,0,0-1.155,1.1v.055c.33,7.48,8.745,15.07,20.68,15.07,11.275,0,17.1-4.29,17.1-11.88,0-9.185-13.475-11.22-20.075-13.8-2.475-.99-3.465-2.75-3.465-4.18,0-1.76,1.705-3.245,4.565-3.245,5.115,0,7.755,4.29,8.085,7.975a1.237,1.237,0,0,0,1.155,1.045l10.12.33h.055c.715,0,1.155-.715,1.265-1.7A11.914,11.914,0,0,0,220.44-25.8Z" transform="translate(622.284 250.909)" fill="#437f96"/>
    <path id="Pfad_1" data-name="Pfad 1" d="M37.62-45.65a.9.9,0,0,0-1.155-.275L18.04-31.185c.495-4.84,1.155-9.3,1.32-12.87l.055-.055a.739.739,0,0,0-.77-.715L4.62-42.79a.828.828,0,0,0-.77.77C3.355-35.64,3.19-27,3.19-17.93A139.128,139.128,0,0,0,4.29-.77.752.752,0,0,0,5.06,0L16.005.11a.787.787,0,0,0,.77-.77c0-2.145-.055-4.345-.055-6.655,0-1.54,0-3.19.055-4.84L30.69,2.2c.715.715,1.21.33,1.43.11l9.075-8.635c.22-.22.165-.77-.33-1.155L23.155-21.505,41.8-34.98a1.208,1.208,0,0,0,.55-1.32Zm23.925,2.53a.682.682,0,0,0-.715-.66l-13.75-.11a.826.826,0,0,0-.77.77c-.495,6.38-.825,16.115-.825,25.19,0,6.6.165,12.87.55,17.215a.787.787,0,0,0,.77.77L59.235.11a.8.8,0,0,0,.825-.77C60-2.8,60-5.005,60-7.315c0-12.375.55-26.565,1.54-35.7ZM104.06-23.7c0-16.28-11-20.185-25.19-20.185a38.522,38.522,0,0,0-11.22,1.7,1.747,1.747,0,0,0-.935,1.43l-.44,39.16c0,.55.44.88.99.99a104.754,104.754,0,0,0,12.76.77C95.15.165,104.06-7.975,104.06-23.7Zm-12.705.5c0,4.675-3.355,10.23-9.9,10.23-.88,0-1.1-.275-1.045-.77l.5-17.05c0-.715.44-.99,1.54-.99C87.45-31.79,91.355-29.04,91.355-23.21Zm54.78-2.585c0-11.385-10.56-19.14-21.45-19.14-9.295,0-18.15,5.61-18.15,14.9,0,8.14,6,11.5,11.605,13.53,2.035.77,10.725,2.75,10.725,5.39,0,1.375-1.32,2.53-3.135,2.53a7.375,7.375,0,0,1-7.205-5.39,1.335,1.335,0,0,0-1.21-.935h-.055l-9.515.33a1.174,1.174,0,0,0-1.155,1.1v.055c.33,7.48,8.745,15.07,20.68,15.07,11.275,0,17.1-4.29,17.1-11.88,0-9.185-13.475-11.22-20.075-13.8-2.475-.99-3.465-2.75-3.465-4.18,0-1.76,1.705-3.245,4.565-3.245,5.115,0,7.755,4.29,8.085,7.975a1.237,1.237,0,0,0,1.155,1.045l10.12.33h.055c.715,0,1.155-.715,1.265-1.7A11.914,11.914,0,0,0,146.135-25.8Z" transform="translate(566.284 213.909)" fill="#ef6664"/>
  </g>
</svg>
