<svg xmlns="http://www.w3.org/2000/svg" width="81.772" height="74.599" viewBox="0 0 81.772 74.599">
  <path id="Shape" d="M14.053,55h0a1.251,1.251,0,0,1,.125-1.564,1.135,1.135,0,0,0,.275-.989,6.627,6.627,0,0,1-2.65.527A9.334,9.334,0,0,1,4.389,49a7.076,7.076,0,0,1-.723-6.721.735.735,0,0,0-.366-.093,2.209,2.209,0,0,0-.909.3l-.014.007a2.147,2.147,0,0,1-.871.293c-.335,0-.583-.217-.781-.682-.727-1.713-1.338-3.909.4-5.71,2.325-2.408,4.764-4.684,6.628-6.4,2.564-2.356,5.188-4.731,7.725-7.027,1.93-1.746,3.922-3.548,5.872-5.329A21.668,21.668,0,0,1,26.216,14.1a4.53,4.53,0,0,1,1.835-.594,1.1,1.1,0,0,1,.862.361A2.439,2.439,0,0,0,30.7,14.87a3.907,3.907,0,0,0,2.1-.97c.155-.11.315-.223.474-.33A157.178,157.178,0,0,1,55.406.863,14.6,14.6,0,0,1,57.245.083,1.069,1.069,0,0,1,57.659,0a1.089,1.089,0,0,1,.871.443c.283.453-.011.779-.295,1.093-.046.051-.09.1-.13.147-.25.3-.517.57-.8.861a8.521,8.521,0,0,0-2.152,3.078,10.441,10.441,0,0,0,3.721-1.585c.392-.238.763-.462,1.152-.663a4.475,4.475,0,0,0,.536-.349,2.079,2.079,0,0,1,1.1-.516,1.083,1.083,0,0,1,.841.506c.737.944.084,1.535-.546,2.107-.1.09-.2.182-.293.272a11.073,11.073,0,0,0-.747.842c-.12.144-.242.292-.373.443a2.457,2.457,0,0,0,.728.116A3.259,3.259,0,0,0,63,6.146c.114-.07.227-.14.342-.207a3.268,3.268,0,0,0,.479-.376,1.651,1.651,0,0,1,.957-.545.929.929,0,0,1,.712.451l.081.107A2.2,2.2,0,0,1,66.1,8.048,7.023,7.023,0,0,1,63.809,11.3c.127.028.235.061.322.088a.982.982,0,0,0,.244.057.123.123,0,0,0,.067-.017,4.116,4.116,0,0,0,.627-.536c.356-.346.724-.7,1.106-.7a.8.8,0,0,1,.593.316c.577.641-.028,1.238-.613,1.815a6.355,6.355,0,0,0-.486.515c-7.027,8.755-15.672,16-24.032,23.009C36.1,40.477,30.384,45.272,25.185,50.46c-2.216,2.212-5.174,2.959-8.035,3.68-1.028.259-2.09.527-3.1.859ZM42.368,32.614a36.471,36.471,0,0,0-8.278,7.272,14.97,14.97,0,0,0-4.883,4.574c-.422.535-.857,1.089-1.307,1.612.691-.659,1.445-1.273,2.174-1.866A17.966,17.966,0,0,0,34.2,40a41.74,41.74,0,0,0,7.758-6.959ZM46.6,10.7h0c-1.081.769-2.24,1.46-3.362,2.128-2.455,1.462-4.994,2.975-6.827,5.385a36.259,36.259,0,0,1,3.515-2.149c2.456-1.376,5-2.8,6.676-5.364Z" transform="translate(18.811) rotate(20)" fill="#f18063"/>
</svg>
